<?xml version="1.0" encoding="UTF-8" standalone="no"?>
<!-- Created with Inkscape (http://www.inkscape.org/) -->

<svg
   xmlns:dc="http://purl.org/dc/elements/1.1/"
   xmlns:cc="http://creativecommons.org/ns#"
   xmlns:rdf="http://www.w3.org/1999/02/22-rdf-syntax-ns#"
   xmlns:svg="http://www.w3.org/2000/svg"
   xmlns="http://www.w3.org/2000/svg"
   xmlns:sodipodi="http://sodipodi.sourceforge.net/DTD/sodipodi-0.dtd"
   xmlns:inkscape="http://www.inkscape.org/namespaces/inkscape"
   sodipodi:docname="licina.svg"
   inkscape:version="0.92.5 (2060ec1f9f, 2020-04-08)"
   id="svg2573"
   version="1.1"
   viewBox="0 0 400 400"
   height="400mm"
   width="400mm">
  <defs
     id="defs2567" />
  <sodipodi:namedview
     id="base"
     pagecolor="#ffffff"
     bordercolor="#666666"
     borderopacity="1.0"
     inkscape:pageopacity="0.0"
     inkscape:pageshadow="2"
     inkscape:zoom="1.4"
     inkscape:cx="418.87235"
     inkscape:cy="105.58635"
     inkscape:document-units="mm"
     inkscape:current-layer="text3120"
     showgrid="false"
     inkscape:window-width="1920"
     inkscape:window-height="1016"
     inkscape:window-x="0"
     inkscape:window-y="27"
     inkscape:window-maximized="1" />
  <metadata
     id="metadata2570">
    <rdf:RDF>
      <cc:Work
         rdf:about="">
        <dc:format>image/svg+xml</dc:format>
        <dc:type
           rdf:resource="http://purl.org/dc/dcmitype/StillImage" />
        <dc:title></dc:title>
      </cc:Work>
    </rdf:RDF>
  </metadata>
  <g
     inkscape:label="Layer 1"
     inkscape:groupmode="layer"
     id="layer1"
     transform="translate(0,103)">
    <g
       transform="translate(-3.7417734)"
       id="text3120"
       style="font-style:normal;font-variant:normal;font-weight:normal;font-stretch:normal;font-size:4.23333311px;line-height:1.25;font-family:sans-serif;-inkscape-font-specification:'sans-serif, Normal';font-variant-ligatures:normal;font-variant-caps:normal;font-variant-numeric:normal;text-align:start;letter-spacing:0px;word-spacing:0px;writing-mode:lr-tb;text-anchor:start;fill:#000000;fill-opacity:1;stroke:none;stroke-width:0.26458332"
       aria-label="Личина ">
      <path
         style="font-style:normal;font-variant:normal;font-weight:bold;font-stretch:normal;font-size:105.83333588px;font-family:'padmaa-Bold.1.1';-inkscape-font-specification:'padmaa-Bold.1.1, Bold';font-variant-ligatures:normal;font-variant-caps:normal;font-variant-numeric:normal;font-feature-settings:normal;text-align:start;writing-mode:lr-tb;text-anchor:start;stroke-width:0.99999994"
         d="m 17.160156,1492.3164 c 71.22396,-7.2916 113.151044,-27.4089 125.781254,-60.3516 12.63021,-33.0729 18.94531,-85.2864 18.94531,-156.6406 v -17.7734 h 57.22656 v 234.7656 h 75.19531 v -196.4141 c 0.0835,0.015 0.15039,0.08 0.15039,0.168 v 45.5293 h 0.4043 c 0.003,0 0.006,-2e-4 0.006,0.01 v 0.7031 h 71.19336 l 70.50781,-116.4063 v 116.4063 h 69.40821 c 2.33395,13.1179 7.19619,23.6458 14.59375,31.5781 10.8073,11.4584 25.97657,17.1875 45.50781,17.1875 h 71.875 v 84.5703 h 69.92187 v -144.666 c 0.006,0.01 0.0176,0.01 0.0176,0.018 v 17.0977 c 0.003,-9e-4 0.003,-0.01 0.006,-0.01 0.0197,0 0.0352,0.015 0.0352,0.035 v 0.2383 h 72.09375 l 70.50781,-116.4062 v 116.4062 h 64.66016 v -46.3769 c 0,-0.02 0.0174,-0.037 0.0371,-0.037 h 0.18164 0.004 v 170.666 h 69.92188 v -92.3828 h 69.33587 v 92.3828 H 1124.6 v -143.5996 c 3.4517,7.2073 8.2136,13.6863 14.2969,19.4316 14.1927,13.1511 32.6172,19.7266 55.2734,19.7266 16.7969,0 31.0547,-2.9948 42.7735,-8.9844 10.9529,-5.7199 20.8815,-14.5708 29.7871,-26.5469 v -2.3769 c 0,-0.099 0.081,-0.1778 0.1797,-0.1778 h 0.7675 c -0.099,0 -0.1777,-0.081 -0.1777,-0.1796 v -46.3907 c -1.8188,9.2428 -5.941,17.2838 -12.3926,24.1094 -8.9843,9.375 -20.0521,14.0625 -33.2031,14.0625 -10.5469,0 -18.8151,-2.4739 -24.8047,-7.4219 -5.8594,-5.0781 -8.7891,-12.0443 -8.7891,-20.8984 0,-9.6354 3.6459,-16.9271 10.9375,-21.875 7.4219,-4.9479 18.4245,-7.4219 33.0079,-7.4219 h 36.3281 v 8.0078 c 0,0.4297 -0.017,0.85 -0.025,1.2754 0.01,0.021 0.025,0.037 0.025,0.061 v 56.4922 c 0,0.098 -0.08,0.1786 -0.1778,0.1796 0.055,0 0.098,0.029 0.1309,0.066 0.016,-0.022 0.031,-0.044 0.047,-0.066 v 0.1778 4.9668 27.2773 h 70.5078 V 1237.707 c 0,-35.026 -8.7891,-60.2864 -26.3672,-75.7812 -17.4479,-15.625 -45.8984,-23.4375 -85.3516,-23.4375 -15.1041,0 -30.2083,0.9765 -45.3125,2.9297 -15.1041,1.8229 -30.1432,4.5573 -45.1171,8.2031 v 53.3203 c 11.0677,-5.9896 23.0468,-10.4818 35.9375,-13.4766 12.8906,-2.9947 26.8229,-4.4921 41.7968,-4.4921 18.4896,0 32.0964,2.6041 40.8203,7.8125 8.724,5.0781 13.086,13.151 13.086,24.2187 v 5.4688 h -41.211 c -37.7604,0 -65.4948,5.9895 -83.2031,17.9687 -8.6562,5.8991 -15.1768,13.4593 -19.5703,22.6738 v -9.2461 h -69.9219 v 83.2032 h -69.33587 v -83.2032 h -64.88282 v -124.2578 h -72.65625 l -70.50781,116.4063 v -116.4024 h -69.92187 v 127.2832 h -69.41797 v 91.0157 h -37.5 c -9.89581,0 -16.73176,-2.8646 -20.50781,-8.5938 -3.77605,-5.8594 -5.66407,-20.3776 -5.66407,-43.5547 v -38.8672 h -67.79101 v -133.3359 h -72.65625 l -70.50782,116.4063 v -116.4063 l -69.9224,-0 v 77.1562 H 86.691406 v 55.0782 c 0,73.0469 -3.320311,120.3776 -9.960937,141.9922 -6.640626,21.4843 -26.497395,34.0494 -59.570313,37.6953 v 56.8359"
         transform="matrix(0.26458333,0,0,0.26458333,3.7417734,-103)"
         id="path3128"
         inkscape:connector-curvature="0"
         sodipodi:nodetypes="ccscccccscssccccccsccccscsscccccssccccccccccsccsscsccscscscscsscccccccscsccccscscsccccccccccccccccscscccccccccsccc" />
      <g
         id="g3316"
         transform="translate(4.74868,359.08206)"
         gcodetools="Gcodetools tool definition">
        <path
           id="path3234"
           d="M -20,-20 H 380 V 155 H -20 Z"
           style="fill:#00ff00;fill-opacity:0.5;stroke:#444444;stroke-width:1px"
           gcodetools="Gcodetools tool background"
           inkscape:connector-curvature="0" />
        <g
           id="g3244"
           gcodetools="Gcodetools tool parameter">
          <text
             id="text3238"
             xml:space="preserve"
             y="0"
             x="0"
             style="font-style:normal;font-variant:normal;font-weight:normal;font-stretch:normal;font-size:20px;font-family:'DejaVu Sans';fill:#000000;fill-opacity:1;stroke:none"
             gcodetools="Gcodetools tool definition field name"><tspan
               id="tspan3236"
               sodipodi:role="line"
               y="0"
               x="0">name</tspan></text>
          <text
             id="text3242"
             xml:space="preserve"
             y="0"
             x="150"
             style="font-style:normal;font-variant:normal;font-weight:normal;font-stretch:normal;font-size:20px;font-family:'DejaVu Sans';fill:#000000;fill-opacity:1;stroke:none"
             gcodetools="Gcodetools tool definition field value"><tspan
               id="tspan3240"
               sodipodi:role="line"
               y="0"
               x="150">Cylindrical cutter</tspan></text>
        </g>
        <g
           id="g3254"
           gcodetools="Gcodetools tool parameter">
          <text
             id="text3248"
             xml:space="preserve"
             y="20"
             x="0"
             style="font-style:normal;font-variant:normal;font-weight:normal;font-stretch:normal;font-size:10px;font-family:'DejaVu Sans';fill:#000000;fill-opacity:1;stroke:none"
             gcodetools="Gcodetools tool definition field name"><tspan
               id="tspan3246"
               sodipodi:role="line"
               y="20"
               x="0">id</tspan></text>
          <text
             id="text3252"
             xml:space="preserve"
             y="20"
             x="150"
             style="font-style:normal;font-variant:normal;font-weight:normal;font-stretch:normal;font-size:10px;font-family:'DejaVu Sans';fill:#000000;fill-opacity:1;stroke:none"
             gcodetools="Gcodetools tool definition field value"><tspan
               id="tspan3250"
               sodipodi:role="line"
               y="20"
               x="150">Cylindrical cutter 0001</tspan></text>
        </g>
        <g
           id="g3264"
           gcodetools="Gcodetools tool parameter">
          <text
             id="text3258"
             xml:space="preserve"
             y="35"
             x="0"
             style="font-style:normal;font-variant:normal;font-weight:normal;font-stretch:normal;font-size:10px;font-family:'DejaVu Sans';fill:#000000;fill-opacity:1;stroke:none"
             gcodetools="Gcodetools tool definition field name"><tspan
               id="tspan3256"
               sodipodi:role="line"
               y="35"
               x="0">diameter</tspan></text>
          <text
             id="text3262"
             xml:space="preserve"
             y="35"
             x="150"
             style="font-style:normal;font-variant:normal;font-weight:normal;font-stretch:normal;font-size:10px;font-family:'DejaVu Sans';fill:#000000;fill-opacity:1;stroke:none"
             gcodetools="Gcodetools tool definition field value"><tspan
               id="tspan3260"
               sodipodi:role="line"
               y="35"
               x="150">10</tspan></text>
        </g>
        <g
           id="g3274"
           gcodetools="Gcodetools tool parameter">
          <text
             id="text3268"
             xml:space="preserve"
             y="50"
             x="0"
             style="font-style:normal;font-variant:normal;font-weight:normal;font-stretch:normal;font-size:10px;font-family:'DejaVu Sans';fill:#000000;fill-opacity:1;stroke:none"
             gcodetools="Gcodetools tool definition field name"><tspan
               id="tspan3266"
               sodipodi:role="line"
               y="50"
               x="0">feed</tspan></text>
          <text
             id="text3272"
             xml:space="preserve"
             y="50"
             x="150"
             style="font-style:normal;font-variant:normal;font-weight:normal;font-stretch:normal;font-size:10px;font-family:'DejaVu Sans';fill:#000000;fill-opacity:1;stroke:none"
             gcodetools="Gcodetools tool definition field value"><tspan
               id="tspan3270"
               sodipodi:role="line"
               y="50"
               x="150">400</tspan></text>
        </g>
        <g
           id="g3284"
           gcodetools="Gcodetools tool parameter">
          <text
             id="text3278"
             xml:space="preserve"
             y="65"
             x="0"
             style="font-style:normal;font-variant:normal;font-weight:normal;font-stretch:normal;font-size:10px;font-family:'DejaVu Sans';fill:#000000;fill-opacity:1;stroke:none"
             gcodetools="Gcodetools tool definition field name"><tspan
               id="tspan3276"
               sodipodi:role="line"
               y="65"
               x="0">penetration angle</tspan></text>
          <text
             id="text3282"
             xml:space="preserve"
             y="65"
             x="150"
             style="font-style:normal;font-variant:normal;font-weight:normal;font-stretch:normal;font-size:10px;font-family:'DejaVu Sans';fill:#000000;fill-opacity:1;stroke:none"
             gcodetools="Gcodetools tool definition field value"><tspan
               id="tspan3280"
               sodipodi:role="line"
               y="65"
               x="150">90</tspan></text>
        </g>
        <g
           id="g3294"
           gcodetools="Gcodetools tool parameter">
          <text
             id="text3288"
             xml:space="preserve"
             y="80"
             x="0"
             style="font-style:normal;font-variant:normal;font-weight:normal;font-stretch:normal;font-size:10px;font-family:'DejaVu Sans';fill:#000000;fill-opacity:1;stroke:none"
             gcodetools="Gcodetools tool definition field name"><tspan
               id="tspan3286"
               sodipodi:role="line"
               y="80"
               x="0">penetration feed</tspan></text>
          <text
             id="text3292"
             xml:space="preserve"
             y="80"
             x="150"
             style="font-style:normal;font-variant:normal;font-weight:normal;font-stretch:normal;font-size:10px;font-family:'DejaVu Sans';fill:#000000;fill-opacity:1;stroke:none"
             gcodetools="Gcodetools tool definition field value"><tspan
               id="tspan3290"
               sodipodi:role="line"
               y="80"
               x="150">100</tspan></text>
        </g>
        <g
           id="g3304"
           gcodetools="Gcodetools tool parameter">
          <text
             id="text3298"
             xml:space="preserve"
             y="95"
             x="0"
             style="font-style:normal;font-variant:normal;font-weight:normal;font-stretch:normal;font-size:10px;font-family:'DejaVu Sans';fill:#000000;fill-opacity:1;stroke:none"
             gcodetools="Gcodetools tool definition field name"><tspan
               id="tspan3296"
               sodipodi:role="line"
               y="95"
               x="0">depth step</tspan></text>
          <text
             id="text3302"
             xml:space="preserve"
             y="95"
             x="150"
             style="font-style:normal;font-variant:normal;font-weight:normal;font-stretch:normal;font-size:10px;font-family:'DejaVu Sans';fill:#000000;fill-opacity:1;stroke:none"
             gcodetools="Gcodetools tool definition field value"><tspan
               id="tspan3300"
               sodipodi:role="line"
               y="95"
               x="150">1</tspan></text>
        </g>
        <g
           id="g3314"
           gcodetools="Gcodetools tool parameter">
          <text
             id="text3308"
             xml:space="preserve"
             y="110"
             x="0"
             style="font-style:normal;font-variant:normal;font-weight:normal;font-stretch:normal;font-size:10px;font-family:'DejaVu Sans';fill:#000000;fill-opacity:1;stroke:none"
             gcodetools="Gcodetools tool definition field name"><tspan
               id="tspan3306"
               sodipodi:role="line"
               y="110"
               x="0">tool change gcode</tspan></text>
          <text
             id="text3312"
             xml:space="preserve"
             y="110"
             x="150"
             style="font-style:normal;font-variant:normal;font-weight:normal;font-stretch:normal;font-size:10px;font-family:'DejaVu Sans';fill:#000000;fill-opacity:1;stroke:none"
             gcodetools="Gcodetools tool definition field value"><tspan
               id="tspan3310"
               sodipodi:role="line"
               y="110"
               x="150">(None)</tspan></text>
        </g>
      </g>
      <rect
         style="opacity:0.83899997;fill:#ff0000;fill-opacity:1;stroke:none;stroke-width:1.00012493;stroke-linejoin:bevel;stroke-miterlimit:4;stroke-dasharray:none;stroke-dashoffset:0;stroke-opacity:1;paint-order:markers fill stroke"
         id="rect3941"
         width="0.00295861"
         height="0.18739174"
         x="81.600723"
         y="251.96509"
         ry="0.001479305" />
    </g>
  </g>
</svg>
