<?xml version="1.0" encoding="UTF-8" standalone="no"?>
<!-- Created with Inkscape (http://www.inkscape.org/) -->

<svg
   xmlns:dc="http://purl.org/dc/elements/1.1/"
   xmlns:cc="http://creativecommons.org/ns#"
   xmlns:rdf="http://www.w3.org/1999/02/22-rdf-syntax-ns#"
   xmlns:svg="http://www.w3.org/2000/svg"
   xmlns="http://www.w3.org/2000/svg"
   xmlns:sodipodi="http://sodipodi.sourceforge.net/DTD/sodipodi-0.dtd"
   xmlns:inkscape="http://www.inkscape.org/namespaces/inkscape"
   width="400mm"
   height="400mm"
   viewBox="0 0 400 400"
   version="1.1"
   id="svg8"
   inkscape:version="0.92.5 (2060ec1f9f, 2020-04-08)"
   sodipodi:docname="orlovic.svg">
  <defs
     id="defs2" />
  <sodipodi:namedview
     id="base"
     pagecolor="#ffffff"
     bordercolor="#666666"
     borderopacity="1.0"
     inkscape:pageopacity="0.0"
     inkscape:pageshadow="2"
     inkscape:zoom="0.7"
     inkscape:cx="647.51079"
     inkscape:cy="-259.67042"
     inkscape:document-units="mm"
     inkscape:current-layer="layer1"
     showgrid="false"
     inkscape:window-width="1920"
     inkscape:window-height="1043"
     inkscape:window-x="1920"
     inkscape:window-y="0"
     inkscape:window-maximized="1" />
  <metadata
     id="metadata5">
    <rdf:RDF>
      <cc:Work
         rdf:about="">
        <dc:format>image/svg+xml</dc:format>
        <dc:type
           rdf:resource="http://purl.org/dc/dcmitype/StillImage" />
        <dc:title />
      </cc:Work>
    </rdf:RDF>
  </metadata>
  <g
     inkscape:label="Layer 1"
     inkscape:groupmode="layer"
     id="layer1"
     transform="translate(0,103)">
    <g
       aria-label="Орловић"
       style="font-style:normal;font-variant:normal;font-weight:normal;font-stretch:normal;font-size:4.23333311px;line-height:1.25;font-family:'Tlwg Typist';-inkscape-font-specification:'Tlwg Typist';font-variant-ligatures:normal;font-variant-caps:normal;font-variant-numeric:normal;text-align:start;letter-spacing:0px;word-spacing:0px;writing-mode:lr-tb;text-anchor:start;fill:#000000;fill-opacity:1;stroke:none;stroke-width:0.26458332"
       id="text817"
       transform="matrix(0.91794173,0,0,0.91794173,-3.6069283,22.441273)">
      <path
         style="font-weight:bold;fill:#000000;stroke-width:0.91794169"
         d="m 284.34766,971.30859 c -6.51042,0 -11.78386,2.95112 -15.82032,8.85157 -4.03646,5.90042 -5.14323,13.42284 -3.32031,22.56834 v 0.8848 c 0.78125,4.1303 3.05991,8.0388 6.83594,11.7265 3.77605,3.8353 7.8776,5.5324 12.30469,5.0899 l 44.92187,-3.9824 v 200.9101 c 0,0.7509 0.0226,1.4872 0.0566,2.2188 h -34.08008 v 7.0976 c -5.83715,-21.669 -16.09853,-39.9309 -30.80078,-54.7773 -24.38283,-24.6219 -58.08867,-36.9336 -101.11719,-36.9336 -42.90892,0 -76.614838,12.3117 -101.117182,36.9336 -24.382827,24.6219 -36.574219,58.6246 -36.574219,102.0117 0,43.2676 12.191392,77.2141 36.574219,101.8359 23.593225,23.7084 55.723482,35.9974 96.382812,36.877 v -50.1172 c -18.7603,-1.0977 -33.50389,-8.8067 -44.21094,-23.1562 -11.59379,-15.5381 -17.390624,-37.3514 -17.390622,-65.4395 0,-28.2076 5.796832,-50.0791 17.390622,-65.6172 11.5938,-15.5381 27.90922,-23.3066 48.94531,-23.3066 21.15569,0 37.52926,7.7685 49.12305,23.3066 11.5938,15.5381 17.39063,37.4096 17.39063,65.6172 0,28.0881 -5.79683,49.9014 -17.39063,65.4395 -11.59379,15.538 -27.96736,23.3086 -49.12305,23.3085 -0.91783,0 -1.81492,-0.035 -2.71484,-0.064 v 50.0605 c 0.90268,0.011 1.80393,0.024 2.71484,0.024 43.02852,0 76.73436,-12.3098 101.11719,-36.9317 14.70233,-14.8464 24.96365,-33.0891 30.80078,-54.7148 v 152.1523 h 64.1836 v -96.455 c 0.30718,0.3722 0.61825,0.7341 0.92773,1.0996 v -51.0157 c 0,-0.105 0.0455,-0.1964 0.11719,-0.2617 -0.69516,-4.5971 -1.04492,-9.5767 -1.04492,-14.9453 0,-17.3882 3.64654,-30.6751 10.9375,-39.8613 7.41044,-9.2956 17.9872,-13.9434 31.73242,-13.9434 13.74522,0 24.20357,4.5931 31.375,13.7793 7.29094,9.1863 10.9375,22.5278 10.9375,40.0254 0,17.4976 -3.64656,30.8392 -10.9375,40.0254 -7.17143,9.1862 -17.62978,13.7793 -31.375,13.7793 -13.74522,0 -24.32198,-4.5931 -31.73242,-13.7793 -4.47197,-5.7015 -7.56557,-12.9318 -9.29492,-21.6777 v 48.7207 c 8.4114,9.7369 17.66378,17.0178 27.75976,21.8418 10.75713,5.0305 23.12902,7.5449 37.11328,7.5449 24.7414,0 45.06038,-8.9673 60.95703,-26.9024 7.01769,-7.965 12.48293,-16.9351 16.40235,-26.9042 -0.83106,23.6242 -2.38317,38.8484 -4.66016,45.6035 -4.78095,13.9843 -17.74863,23.1268 -38.9043,27.4297 v 45.8964 c 47.33136,0 79.3624,-15.5371 96.09571,-46.6132 8.24714,-15.2991 12.37109,-49.1834 12.37109,-101.6543 v -6.6348 h 45.17969 v 154.9023 h 64.18555 V 1349.625 c 4.74255,10.3285 11.18781,19.4035 19.34961,27.2148 19.10785,18.1759 45.37451,27.4893 78.79296,27.9473 v -45.9355 c -12.95345,-0.5903 -22.96377,-5.6495 -30.02734,-15.1797 -7.41047,-10.2791 -11.11523,-25.0399 -11.11523,-44.2832 0,-19.2433 3.70476,-33.946 11.11523,-44.1055 7.53,-10.279 18.40756,-15.418 32.63086,-15.418 13.98426,0 24.68133,5.139 32.0918,15.418 7.41047,10.1595 11.11523,24.8622 11.11523,44.1055 0,19.2433 -3.70476,34.0041 -11.11523,44.2832 -7.41047,10.1595 -18.10754,15.2383 -32.0918,15.2383 -0.63979,0 -1.26437,-0.023 -1.89063,-0.043 v 45.9258 c 0.62927,0.01 1.25632,0.016 1.89063,0.016 34.54234,0 61.49459,-9.3231 80.85742,-27.9688 9.00269,-8.616 15.91912,-18.7666 20.76172,-30.4453 v 82.0645 h 63.63477 v -38.7012 h -0.67774 c -0.07,0 -0.12695,-0.057 -0.12695,-0.1269 v -5.6407 c 0,-0.07 0.057,-0.125 0.12695,-0.125 h 1.22656 v -40.3886 h 32.45118 c 9.44237,0 16.55303,1.8533 21.33398,5.5586 4.78099,3.7052 7.17189,9.2633 7.17189,16.6738 0,7.53 -2.3909,13.2065 -7.17189,17.0312 -4.78095,3.7053 -11.89161,5.5586 -21.33398,5.5586 H 944.4648 v 1.3321 c 0,0.07 -0.057,0.1269 -0.12695,0.1269 h -0.2168 v 38.7012 h 36.57422 c 28.44663,0 49.66223,-4.7217 63.64653,-14.1641 6.6307,-4.5338 11.6695,-10.1827 15.1562,-16.9199 v 75.8066 h 66.6954 l 64.7226,-106.8535 v 106.8535 h 64.1836 v -161.1777 h 31.9121 v 161.1777 h 64.1856 v -35.6777 c 0,-18.2871 3.7649,-32.5686 11.2949,-42.8477 7.53,-10.3978 18.1067,-15.5996 31.7324,-15.5996 10.04,0 17.5699,3.3477 22.5899,10.0411 5.0199,6.6933 7.5312,23.486 7.5312,50.3789 v 33.705 h 64.541 v -59.164 c 0,-27.1319 -6.0355,-47.808 -18.1074,-62.0313 -11.9524,-14.2233 -29.5214,-21.3359 -52.709,-21.3359 -13.1476,0 -25.1605,2.8082 -36.0371,8.4258 -10.8767,5.4981 -21.1545,14.105 -30.8359,25.8183 v -52.8906 h 88.9238 v -39.6211 h -88.9238 v -78.168 h -64.1856 v 78.168 h -31.9121 -66.6953 l -64.7207,106.8535 v -106.8535 h -64.1856 v 72.9414 c -1.1721,-2.2177 -2.5143,-4.3315 -4.041,-6.3301 -6.4543,-8.7252 -15.5968,-14.7006 -27.4297,-17.9277 9.2034,-3.3467 16.2539,-8.4274 21.1543,-15.2402 0.7123,-1.0077 1.3661,-2.049 1.9746,-3.1172 h -69.31249 c -2.23543,0.4019 -4.70631,0.6074 -7.42383,0.6074 h -30.29883 v -36.0352 h 30.29883 c 7.41047,0 13.02875,1.4944 16.85352,4.4825 3.82474,2.9881 5.73633,7.4691 5.73633,13.4453 0,5.9762 -1.91159,10.5174 -5.73633,13.625 -2.16763,1.6934 -4.93247,2.8892 -8.25196,3.623 h 68.27736 c 3.4848,-6.2248 5.2344,-13.4658 5.2344,-21.7304 0,-18.5262 -6.6934,-31.9713 -20.0801,-40.3379 -13.2671,-8.4862 -34.7815,-12.7305 -64.54298,-12.7305 H 879.9375 v 24.7246 c -4.8426,-11.6787 -11.75903,-21.8292 -20.76172,-30.4453 -5.3266,-5.1293 -11.2317,-9.5493 -17.70703,-13.2676 1.19998,-2.7613 1.80664,-5.7562 1.80664,-8.9902 v -0.7813 c 0,-6.5104 -2.27866,-11.8489 -6.83594,-16.0156 -4.5573,-4.1667 -9.70053,-6.1849 -15.42968,-6.0547 l -80.85938,1.5625 v -61.7187 l 70.89844,1.7578 c 5.85937,0.1302 11.0026,-1.9531 15.42969,-6.25 4.42708,-4.2969 6.64062,-9.5703 6.64062,-15.8203 v -0.7813 c 0,-6.25 -2.21354,-11.4583 -6.64062,-15.625 -4.42709,-4.1667 -9.57032,-6.1849 -15.42969,-6.0547 l -70.89844,1.7578 v -55.4687 l 75.19531,3.5156 c 5.07813,0.2604 9.83073,-1.3672 14.25782,-4.8828 1.43229,-1.1719 3.97135,-5.4687 7.61718,-12.8906 3.64584,-7.42194 2.27864,-15.03906 -4.10156,-22.85158 -4.16668,-5.20827 -9.96095,-7.81249 -17.38281,-7.8125 h -99.41406 c -10.02603,0 -18.35937,3.4505 -25,10.35157 -6.64063,7.03123 -9.96094,15.23431 -9.96094,24.60941 v 176.5625 c 0,9.5052 3.45052,17.7083 10.35156,24.6093 2.8877,2.8877 6.00593,5.1625 9.34961,6.8418 -1.41423,1.1904 -2.79721,2.4194 -4.14062,3.6973 -13.80561,13.2127 -22.71367,30.0304 -26.73633,50.4453 h -165.625 c -3.97254,-11.3064 -9.85535,-21.3645 -17.65821,-30.168 -0.27608,-0.3133 -0.55718,-0.6178 -0.83593,-0.9257 0.12944,0 0.25671,0.01 0.38671,0.01 h 0.59376 c 8.32071,0 15.32075,-2.9277 21,-8.7851 5.81128,-5.9935 8.71679,-13.2127 8.71679,-21.6582 v -83.9785 h 83.20703 v 83.9785 c 0,8.4455 2.77508,15.6647 8.32227,21.6582 5.67927,5.8574 12.67924,8.7851 21,8.7851 h 0.39648 c 8.05665,0 14.98946,-2.9277 20.80078,-8.7851 5.81133,-5.9935 8.7168,-13.2127 8.7168,-21.6582 V 1012.864 c 0,-8.4455 -2.90547,-15.66469 -8.7168,-21.65822 -5.67926,-5.99354 -12.61208,-8.99024 -20.80078,-8.99024 h -0.39648 c -8.32076,0 -15.25555,2.9967 -20.80274,8.99024 -5.67926,5.99353 -8.51953,13.21272 -8.51953,21.65822 v 63.75 h -83.20703 v -63.75 c 0,-8.4455 -2.90551,-15.66469 -8.71679,-21.65822 -5.81133,-5.99354 -12.81138,-8.99024 -21,-8.99024 h -0.59376 c -8.18862,0 -15.12351,2.9967 -20.80273,8.99024 -5.67927,5.99353 -8.51953,13.21272 -8.51953,21.65822 v 197.9922 c 0,3.8148 0.58542,7.3769 1.74414,10.6914 -9.93364,-4.2603 -20.90777,-6.3965 -32.92969,-6.3965 -13.95734,0 -26.30815,2.5596 -37.05078,7.6797 0.22062,-1.7679 0.33594,-3.5892 0.33594,-5.4707 v -200.9102 l 44.92187,3.9824 c 3.77605,0.4425 7.68229,-1.0329 11.71875,-4.4257 3.90625,-3.3927 6.38022,-7.5229 7.42188,-12.3907 v -0.8847 c 2.21354,-8.55584 1.23696,-15.93155 -2.92969,-22.12698 -4.16668,-6.19545 -9.57031,-9.29297 -16.21094,-9.29297 z"
         transform="matrix(0.28823543,0,0,0.28823543,3.9293652,-136.65494)"
         id="path829"
         inkscape:connector-curvature="0" />
    </g>
    <g
       aria-label="THE"
       style="font-style:normal;font-variant:normal;font-weight:normal;font-stretch:normal;font-size:4.23333311px;line-height:1.25;font-family:sans-serif;-inkscape-font-specification:'sans-serif, Normal';font-variant-ligatures:normal;font-variant-caps:normal;font-variant-numeric:normal;text-align:start;letter-spacing:0px;word-spacing:0px;writing-mode:lr-tb;text-anchor:start;fill:#000000;fill-opacity:1;stroke:none;stroke-width:0.26458332"
       id="text827"
       transform="translate(-35.151786,15.119047)" />
    <g
       id="g998"
       transform="translate(112.37048,396.10747)"
       gcodetools="Gcodetools tool definition">
      <path
         id="path916"
         d="M -20,-20 H 380 V 155 H -20 Z"
         style="fill:#00ff00;fill-opacity:0.5;stroke:#444444;stroke-width:1px"
         gcodetools="Gcodetools tool background"
         inkscape:connector-curvature="0" />
      <g
         id="g926"
         gcodetools="Gcodetools tool parameter">
        <text
           id="text920"
           xml:space="preserve"
           y="0"
           x="0"
           style="font-style:normal;font-variant:normal;font-weight:normal;font-stretch:normal;font-size:20px;font-family:'DejaVu Sans';fill:#000000;fill-opacity:1;stroke:none"
           gcodetools="Gcodetools tool definition field name"><tspan
             id="tspan918"
             sodipodi:role="line"
             y="0"
             x="0">name</tspan></text>
        <text
           id="text924"
           xml:space="preserve"
           y="0"
           x="150"
           style="font-style:normal;font-variant:normal;font-weight:normal;font-stretch:normal;font-size:20px;font-family:'DejaVu Sans';fill:#000000;fill-opacity:1;stroke:none"
           gcodetools="Gcodetools tool definition field value"><tspan
             id="tspan922"
             sodipodi:role="line"
             y="0"
             x="150">Cylindrical cutter</tspan></text>
      </g>
      <g
         id="g936"
         gcodetools="Gcodetools tool parameter">
        <text
           id="text930"
           xml:space="preserve"
           y="20"
           x="0"
           style="font-style:normal;font-variant:normal;font-weight:normal;font-stretch:normal;font-size:10px;font-family:'DejaVu Sans';fill:#000000;fill-opacity:1;stroke:none"
           gcodetools="Gcodetools tool definition field name"><tspan
             id="tspan928"
             sodipodi:role="line"
             y="20"
             x="0">id</tspan></text>
        <text
           id="text934"
           xml:space="preserve"
           y="20"
           x="150"
           style="font-style:normal;font-variant:normal;font-weight:normal;font-stretch:normal;font-size:10px;font-family:'DejaVu Sans';fill:#000000;fill-opacity:1;stroke:none"
           gcodetools="Gcodetools tool definition field value"><tspan
             id="tspan932"
             sodipodi:role="line"
             y="20"
             x="150">Cylindrical cutter 0001</tspan></text>
      </g>
      <g
         id="g946"
         gcodetools="Gcodetools tool parameter">
        <text
           id="text940"
           xml:space="preserve"
           y="35"
           x="0"
           style="font-style:normal;font-variant:normal;font-weight:normal;font-stretch:normal;font-size:10px;font-family:'DejaVu Sans';fill:#000000;fill-opacity:1;stroke:none"
           gcodetools="Gcodetools tool definition field name"><tspan
             id="tspan938"
             sodipodi:role="line"
             y="35"
             x="0">diameter</tspan></text>
        <text
           id="text944"
           xml:space="preserve"
           y="35"
           x="150"
           style="font-style:normal;font-variant:normal;font-weight:normal;font-stretch:normal;font-size:10px;font-family:'DejaVu Sans';fill:#000000;fill-opacity:1;stroke:none"
           gcodetools="Gcodetools tool definition field value"><tspan
             id="tspan942"
             sodipodi:role="line"
             y="35"
             x="150">10</tspan></text>
      </g>
      <g
         id="g956"
         gcodetools="Gcodetools tool parameter">
        <text
           id="text950"
           xml:space="preserve"
           y="50"
           x="0"
           style="font-style:normal;font-variant:normal;font-weight:normal;font-stretch:normal;font-size:10px;font-family:'DejaVu Sans';fill:#000000;fill-opacity:1;stroke:none"
           gcodetools="Gcodetools tool definition field name"><tspan
             id="tspan948"
             sodipodi:role="line"
             y="50"
             x="0">feed</tspan></text>
        <text
           id="text954"
           xml:space="preserve"
           y="50"
           x="150"
           style="font-style:normal;font-variant:normal;font-weight:normal;font-stretch:normal;font-size:10px;font-family:'DejaVu Sans';fill:#000000;fill-opacity:1;stroke:none"
           gcodetools="Gcodetools tool definition field value"><tspan
             id="tspan952"
             sodipodi:role="line"
             y="50"
             x="150">400</tspan></text>
      </g>
      <g
         id="g966"
         gcodetools="Gcodetools tool parameter">
        <text
           id="text960"
           xml:space="preserve"
           y="65"
           x="0"
           style="font-style:normal;font-variant:normal;font-weight:normal;font-stretch:normal;font-size:10px;font-family:'DejaVu Sans';fill:#000000;fill-opacity:1;stroke:none"
           gcodetools="Gcodetools tool definition field name"><tspan
             id="tspan958"
             sodipodi:role="line"
             y="65"
             x="0">penetration angle</tspan></text>
        <text
           id="text964"
           xml:space="preserve"
           y="65"
           x="150"
           style="font-style:normal;font-variant:normal;font-weight:normal;font-stretch:normal;font-size:10px;font-family:'DejaVu Sans';fill:#000000;fill-opacity:1;stroke:none"
           gcodetools="Gcodetools tool definition field value"><tspan
             id="tspan962"
             sodipodi:role="line"
             y="65"
             x="150">90</tspan></text>
      </g>
      <g
         id="g976"
         gcodetools="Gcodetools tool parameter">
        <text
           id="text970"
           xml:space="preserve"
           y="80"
           x="0"
           style="font-style:normal;font-variant:normal;font-weight:normal;font-stretch:normal;font-size:10px;font-family:'DejaVu Sans';fill:#000000;fill-opacity:1;stroke:none"
           gcodetools="Gcodetools tool definition field name"><tspan
             id="tspan968"
             sodipodi:role="line"
             y="80"
             x="0">penetration feed</tspan></text>
        <text
           id="text974"
           xml:space="preserve"
           y="80"
           x="150"
           style="font-style:normal;font-variant:normal;font-weight:normal;font-stretch:normal;font-size:10px;font-family:'DejaVu Sans';fill:#000000;fill-opacity:1;stroke:none"
           gcodetools="Gcodetools tool definition field value"><tspan
             id="tspan972"
             sodipodi:role="line"
             y="80"
             x="150">100</tspan></text>
      </g>
      <g
         id="g986"
         gcodetools="Gcodetools tool parameter">
        <text
           id="text980"
           xml:space="preserve"
           y="95"
           x="0"
           style="font-style:normal;font-variant:normal;font-weight:normal;font-stretch:normal;font-size:10px;font-family:'DejaVu Sans';fill:#000000;fill-opacity:1;stroke:none"
           gcodetools="Gcodetools tool definition field name"><tspan
             id="tspan978"
             sodipodi:role="line"
             y="95"
             x="0">depth step</tspan></text>
        <text
           id="text984"
           xml:space="preserve"
           y="95"
           x="150"
           style="font-style:normal;font-variant:normal;font-weight:normal;font-stretch:normal;font-size:10px;font-family:'DejaVu Sans';fill:#000000;fill-opacity:1;stroke:none"
           gcodetools="Gcodetools tool definition field value"><tspan
             id="tspan982"
             sodipodi:role="line"
             y="95"
             x="150">2</tspan></text>
      </g>
      <g
         id="g996"
         gcodetools="Gcodetools tool parameter">
        <text
           id="text990"
           xml:space="preserve"
           y="110"
           x="0"
           style="font-style:normal;font-variant:normal;font-weight:normal;font-stretch:normal;font-size:10px;font-family:'DejaVu Sans';fill:#000000;fill-opacity:1;stroke:none"
           gcodetools="Gcodetools tool definition field name"><tspan
             id="tspan988"
             sodipodi:role="line"
             y="110"
             x="0">tool change gcode</tspan></text>
        <text
           id="text994"
           xml:space="preserve"
           y="110"
           x="150"
           style="font-style:normal;font-variant:normal;font-weight:normal;font-stretch:normal;font-size:10px;font-family:'DejaVu Sans';fill:#000000;fill-opacity:1;stroke:none"
           gcodetools="Gcodetools tool definition field value"><tspan
             id="tspan992"
             sodipodi:role="line"
             y="110"
             x="150">(None)</tspan></text>
      </g>
    </g>
  </g>
</svg>
